<?xml version="1.0" encoding="UTF-8"?>
<svg width="102.99" height="121.64" version="1.1" viewBox="0 0 102.99 121.64" xmlns="http://www.w3.org/2000/svg">
 <defs>
  <filter id="filter1204" x="-.019454" y="-.025012" width="1.0389" height="1.05" color-interpolation-filters="sRGB">
   <feGaussianBlur stdDeviation="0.72952099"/>
  </filter>
  <linearGradient id="linearGradient1265" x1="107.04" x2="47.068" y1="15.043" y2="54.253" gradientUnits="userSpaceOnUse">
   <stop stop-color="#a8a8a8" stop-opacity="0" offset="0"/>
   <stop stop-color="#a8a8a8" offset="1"/>
  </linearGradient>
  <filter id="filter1472" x="-.017645" y="-.022687" width="1.0353" height="1.0454" color-interpolation-filters="sRGB">
   <feGaussianBlur stdDeviation="0.66169705"/>
  </filter>
  <filter id="filter9054" x="-.030359" y="-.096314" width="1.0607" height="1.1926" color-interpolation-filters="sRGB">
   <feGaussianBlur stdDeviation="1.6209158"/>
  </filter>
  <radialGradient id="radialGradient9066" cx="255.09" cy="347.15" r="59.945" gradientTransform="matrix(1.1119 -.037966 .014994 .43913 -33.746 204.39)" gradientUnits="userSpaceOnUse">
   <stop stop-color="#fff" offset="0"/>
   <stop stop-color="#808080" stop-opacity="0" offset="1"/>
  </radialGradient>
 </defs>
 <g transform="translate(5.9661 4.1607)">
  <path d="m46.793 1.5881h-10a2 2 0 0 0-2 2v4a2 2 0 0 1-2 2h-8a2 2 0 0 0-2 2v4a2 2 0 0 1-2 2h-17a2 2 0 0 0-2 2v50a2 2 0 0 0 2 2h43m0-70h10a2 2 0 0 1 2 2v4a2 2 0 0 0 2 2h8a2 2 0 0 1 2 2v4a2 2 0 0 0 2 2h17a2 2 0 0 1 2 2v50a2 2 0 0 1-2 2h-43" fill="#8a8a8a" filter="url(#filter1472)"/>
  <g stroke="#000">
   <path id="eth-shape" d="m45.5 2.935h-10a2 2 0 0 0-2 2v4a2 2 0 0 1-2 2h-8a2 2 0 0 0-2 2v4a2 2 0 0 1-2 2h-17a2 2 0 0 0-2 2v50a2 2 0 0 0 2 2h43m0-70h10a2 2 0 0 1 2 2v4a2 2 0 0 0 2 2h8a2 2 0 0 1 2 2v4a2 2 0 0 0 2 2h17a2 2 0 0 1 2 2v50a2 2 0 0 1-2 2h-43" fill="#ccc"/>
   <rect x="75.85" y="5.0157" width="11.852" height="5.3875" rx=".37795" ry=".37795" fill="#9ccc69" stroke-linejoin="round" stroke-width=".4"/>
   <rect x="3.1964" y="5.0157" width="11.852" height="5.3875" rx=".37795" ry=".37795" fill="#cccc69" stroke-linejoin="round" stroke-width=".4"/>
  </g>
  <path transform="matrix(.94012 0 0 .90495 -1.2935 1.5194)" d="m50 5h-10a2 2 0 0 0-2 2v4a2 2 0 0 1-2 2h-8a2 2 0 0 0-2 2v4a2 2 0 0 1-2 2h-17a2 2 0 0 0-2 2v50a2 2 0 0 0 2 2h43m0-70h10a2 2 0 0 1 2 2v4a2 2 0 0 0 2 2h8a2 2 0 0 1 2 2v4a2 2 0 0 0 2 2h17a2 2 0 0 1 2 2v50a2 2 0 0 1-2 2h-43" fill="url(#linearGradient1265)" filter="url(#filter1204)"/>
  <g stroke="#000" stroke-width="1.3136">
   <line x1="19.185" x2="19.185" y1="60.855" y2="72.935"/>
   <line x1="25.436" x2="25.436" y1="60.855" y2="72.935"/>
   <line x1="31.688" x2="31.688" y1="60.855" y2="72.935"/>
   <line x1="37.94" x2="37.94" y1="60.855" y2="72.935"/>
   <line x1="44.192" x2="44.192" y1="60.855" y2="72.935"/>
   <line x1="56.695" x2="56.695" y1="60.855" y2="72.935"/>
   <line x1="69.199" x2="69.199" y1="60.701" y2="72.781"/>
   <line x1="62.947" x2="62.947" y1="60.855" y2="72.935"/>
   <line x1="50.443" x2="50.443" y1="60.855" y2="72.935"/>
  </g>
 </g>
 <g transform="matrix(.68919 0 0 .66521 -123.84 -128.03)" stroke-width="1.4769">
  <rect transform="matrix(.99415 0 0 .96905 1.1261 10.176)" x="192.4" y="328.83" width="128.14" height="40.391" rx="14.595" ry="7.7565" fill="#6e6e6e" filter="url(#filter9054)" opacity=".996" stroke-width="2.1121"/>
  <rect x="192.4" y="328.83" width="125.14" height="37.641" rx="14.51" ry="7.5164" fill="#f5f5f5" opacity=".996" stroke="#000" stroke-linejoin="round" stroke-width="1.2305"/>
  <g fill="#828282" stroke="#000" stroke-linejoin="round" stroke-width="1.5352">
   <rect x="190.97" y="336.99" width="2.722" height="19.869" opacity=".996"/>
   <rect x="316.66" y="336.99" width="2.722" height="19.869" opacity=".996"/>
   <rect transform="rotate(90)" x="325.85" y="-307.45" width="2.722" height="102.07" opacity=".996"/>
   <rect transform="rotate(90)" x="365.8" y="-307.45" width="2.722" height="102.07" opacity=".996"/>
  </g>
  <rect x="195.15" y="330.33" width="119.89" height="33.641" rx="14.51" ry="7.5164" fill="url(#radialGradient9066)" opacity=".996" stroke-width="2.1121"/>
  <rect x="204.75" y="337.25" width="102.5" height="7.75" rx="1.451" ry="1.5033" fill="#5b88c9" opacity=".996" stroke-width="2.1121"/>
  <g fill="#707070" stroke-width="3.0205">
   <rect x="239.19" y="345.07" width="7.0711" height="1.7678" opacity=".996"/>
   <rect x="266.95" y="345.07" width="7.0711" height="1.7678" opacity=".996"/>
   <rect x="294.71" y="345.07" width="7.0711" height="1.7678" opacity=".996"/>
  </g>
  <rect x="219.37" y="363.26" width="10.631" height="2.5026" rx=".19089" ry=".19777" stroke-linejoin="round" stroke-width="2.2738"/>
  <rect x="277.12" y="363.26" width="10.631" height="2.5026" rx=".19089" ry=".19777" stroke-linejoin="round" stroke-width="2.2738"/>
  <rect x="211.42" y="345.07" width="7.0711" height="1.7678" fill="#707070" opacity=".996" stroke-width="2.1121"/>
 </g>
 <rect x=".487" y=".487" width="102.02" height="120.67" rx="5" ry="5" fill="none" opacity=".996" stroke="#000" stroke-linejoin="round" stroke-width=".974"/>
</svg>
