<?xml version="1.0" encoding="UTF-8"?>
<svg width="93.381" height="73.435" version="1.1" viewBox="0 0 93.381 73.435" xmlns="http://www.w3.org/2000/svg">
 <defs>
  <filter id="filter1204" x="-.019454" y="-.025012" width="1.0389" height="1.05" color-interpolation-filters="sRGB">
   <feGaussianBlur stdDeviation="0.72952099"/>
  </filter>
  <linearGradient id="linearGradient1265" x1="107.04" x2="47.068" y1="15.043" y2="54.253" gradientUnits="userSpaceOnUse">
   <stop stop-color="#a8a8a8" stop-opacity="0" offset="0"/>
   <stop stop-color="#a8a8a8" offset="1"/>
  </linearGradient>
  <filter id="filter1472" x="-.017645" y="-.022687" width="1.0353" height="1.0454" color-interpolation-filters="sRGB">
   <feGaussianBlur stdDeviation="0.66169705"/>
  </filter>
 </defs>
 <path d="m46.793 1.5881h-10a2 2 0 0 0-2 2v4a2 2 0 0 1-2 2h-8a2 2 0 0 0-2 2v4a2 2 0 0 1-2 2h-17a2 2 0 0 0-2 2v50a2 2 0 0 0 2 2h43m0-70h10a2 2 0 0 1 2 2v4a2 2 0 0 0 2 2h8a2 2 0 0 1 2 2v4a2 2 0 0 0 2 2h17a2 2 0 0 1 2 2v50a2 2 0 0 1-2 2h-43" fill="#8a8a8a" filter="url(#filter1472)"/>
 <g stroke="#000">
  <path id="eth-shape" d="m45.5 2.935h-10a2 2 0 0 0-2 2v4a2 2 0 0 1-2 2h-8a2 2 0 0 0-2 2v4a2 2 0 0 1-2 2h-17a2 2 0 0 0-2 2v50a2 2 0 0 0 2 2h43m0-70h10a2 2 0 0 1 2 2v4a2 2 0 0 0 2 2h8a2 2 0 0 1 2 2v4a2 2 0 0 0 2 2h17a2 2 0 0 1 2 2v50a2 2 0 0 1-2 2h-43" fill="#ccc"/>
  <rect x="75.85" y="5.0157" width="11.852" height="5.3875" rx=".37795" ry=".37795" fill="#9ccc69" stroke-linejoin="round" stroke-width=".4"/>
  <rect x="3.1964" y="5.0157" width="11.852" height="5.3875" rx=".37795" ry=".37795" fill="#cccc69" stroke-linejoin="round" stroke-width=".4"/>
 </g>
 <path transform="matrix(.94012 0 0 .90495 -1.2935 1.5194)" d="m50 5h-10a2 2 0 0 0-2 2v4a2 2 0 0 1-2 2h-8a2 2 0 0 0-2 2v4a2 2 0 0 1-2 2h-17a2 2 0 0 0-2 2v50a2 2 0 0 0 2 2h43m0-70h10a2 2 0 0 1 2 2v4a2 2 0 0 0 2 2h8a2 2 0 0 1 2 2v4a2 2 0 0 0 2 2h17a2 2 0 0 1 2 2v50a2 2 0 0 1-2 2h-43" fill="url(#linearGradient1265)" filter="url(#filter1204)"/>
 <g stroke="#000" stroke-width="1.3136">
  <line x1="19.185" x2="19.185" y1="60.855" y2="72.935"/>
  <line x1="25.436" x2="25.436" y1="60.855" y2="72.935"/>
  <line x1="31.688" x2="31.688" y1="60.855" y2="72.935"/>
  <line x1="37.94" x2="37.94" y1="60.855" y2="72.935"/>
  <line x1="44.192" x2="44.192" y1="60.855" y2="72.935"/>
  <line x1="56.695" x2="56.695" y1="60.855" y2="72.935"/>
  <line x1="69.199" x2="69.199" y1="60.701" y2="72.781"/>
  <line x1="62.947" x2="62.947" y1="60.855" y2="72.935"/>
  <line x1="50.443" x2="50.443" y1="60.855" y2="72.935"/>
 </g>
</svg>
